<?xml version="1.0" encoding="UTF-8" standalone="no"?>
<!-- Created with Inkscape (http://www.inkscape.org/) -->

<svg
   version="1.1"
   id="svg182"
   width="990.80353"
   height="841.83069"
   viewBox="0 0 990.80353 841.83069"
   sodipodi:docname="sandw_logo_20230511_1446.svg"
   inkscape:version="1.2.2 (732a01da63, 2022-12-09)"
   xmlns:inkscape="http://www.inkscape.org/namespaces/inkscape"
   xmlns:sodipodi="http://sodipodi.sourceforge.net/DTD/sodipodi-0.dtd"
   xmlns="http://www.w3.org/2000/svg"
   xmlns:svg="http://www.w3.org/2000/svg">
  <defs
     id="defs186" />
  <sodipodi:namedview
     id="namedview184"
     pagecolor="#ffffff"
     bordercolor="#000000"
     borderopacity="0.25"
     inkscape:showpageshadow="2"
     inkscape:pageopacity="0.0"
     inkscape:pagecheckerboard="0"
     inkscape:deskcolor="#d1d1d1"
     showgrid="false"
     inkscape:zoom="0.87638889"
     inkscape:cx="401.07765"
     inkscape:cy="362.85261"
     inkscape:window-width="2880"
     inkscape:window-height="1514"
     inkscape:window-x="2869"
     inkscape:window-y="-11"
     inkscape:window-maximized="1"
     inkscape:current-layer="g188" />
  <g
     inkscape:groupmode="layer"
     inkscape:label="Image"
     id="g188"
     transform="translate(-318.57776,-357.67164)">
    <path
       style="fill:#000000;stroke-width:1.33333"
       d="m 400.17636,1199.1149 c -2.61538,-2.6154 0.72999,-18.305 13.17518,-61.7908 27.6519,-96.6208 47.62145,-143.39189 85.36705,-199.94006 43.29976,-64.86905 114.27821,-139.15685 186.6158,-195.31666 13.11119,-10.17896 15.63575,-12.68334 12.78556,-12.68334 -0.79017,0 -14.19017,-5.75938 -29.77777,-12.79865 -87.70704,-39.60788 -151.0367,-62.00633 -222.21322,-78.59244 -33.94081,-7.90915 -54.87001,-11.04927 -84.15757,-12.6266 -34.60172,-1.86355 -42.1436,-3.16828 -43.22525,-7.47791 -1.89268,-7.54106 12.4502,-23.71817 28.97496,-32.68041 41.81634,-22.67917 95.4906,-21.91696 169.61329,2.40867 50.08309,16.43629 94.10845,39.13677 152.33333,78.54653 13.38334,9.05857 24.33334,15.91008 24.33334,15.22559 0,-1.46467 -28.4827,-50.22895 -55.29658,-94.67144 -56.46293,-93.58414 -106.22789,-166.55564 -133.72934,-196.0904 -12.1766,-13.07688 -13.04044,-14.77851 -9.25586,-18.23259 9.6765,-8.83145 44.33156,-16.24604 67.5533,-14.45328 15.58352,1.20308 26.6714,5.13097 40.06181,14.19196 39.41544,26.67153 81.42153,95.24169 115.93516,189.25097 13.47053,36.69142 33.36229,98.67055 38.40785,119.67186 1.27802,5.31952 2.92366,9.41226 3.65699,9.09498 8.94108,-3.86828 24.72553,-9.96453 27.34441,-10.56093 4.56119,-1.03871 7.1562,0.783 6.0555,4.25101 -0.487,1.53442 -3.52572,6.37638 -6.75271,10.75992 l -5.86724,7.9701 5.61001,0.67301 c 3.08552,0.37016 16.41003,1.34151 29.61003,2.15853 82.32003,5.09532 149.33657,16.26896 210.66671,35.12438 117.9054,36.249 212.5498,94.90429 256.3272,158.85714 30.5197,44.5853 33.7448,90.55967 6.4247,91.58677 -6.6215,0.2489 -25.0054,-9.3858 -47.4186,-24.85153 -66.074,-45.59277 -97.8732,-65.17481 -148.6667,-91.54933 -53.0714,-27.55737 -113.03866,-54.82637 -159.99998,-72.75703 -27.31146,-10.428 -75.65581,-27.2175 -76.35573,-26.5176 -0.47168,0.4717 2.45137,2.45636 27.68907,18.80002 34.04372,22.04633 87.89142,72.7368 115.60914,108.83062 49.9044,64.98527 71.3332,130.64594 51.3475,157.33524 -8.9842,11.9976 -22.9738,11.8747 -38.4051,-0.3373 -10.5743,-8.3683 -23.03073,-23.1239 -50.54424,-59.8732 C 894.97986,907.8505 824.86038,831.09284 750.44984,766.27471 l -16.21786,-14.1272 -27.94466,28.49713 c -89.45848,91.22716 -147.59656,159.53512 -187.30768,220.07276 -19.29074,29.4077 -30.74154,49.9704 -57.17232,102.6666 -12.50577,24.9334 -27.26369,52.9595 -32.79538,62.2804 -12.55946,21.1627 -25.78326,36.5028 -28.83558,33.4505 z m 177.8247,-35.0677 c -27.46859,-2.2152 -43.60566,-11.3322 -52.63104,-29.7352 -5.10179,-10.4026 -7.36896,-19.9475 -7.36896,-31.0236 v -7.0649 l 8.97736,5.2461 c 9.78384,5.7173 13.12,6.9679 24.6893,9.2547 6.5193,1.2887 7.66799,1.9503 7.67546,4.4209 0.0107,3.6053 3.58304,9.1518 8.26693,12.8362 6.87307,5.4063 14.18776,7.1596 30.39095,7.2845 12.7547,0.098 16.95957,-0.4147 25.0035,-3.0502 21.93135,-7.1856 29.71884,-23.6461 15.91706,-33.6441 -7.78752,-5.6412 -18.71267,-8.5486 -49.51328,-13.1765 -54.82055,-8.2368 -68.01104,-14.5097 -69.70102,-33.1472 -1.25392,-13.8283 6.93131,-26.6949 21.62707,-33.9962 19.00173,-9.4405 54.75725,-12.3412 82.51981,-6.6944 20.90634,4.2523 38.85351,17.5366 44.66051,33.0572 1.62103,4.3326 2.76861,8.9468 2.55017,10.2539 -0.34761,2.08 -1.33513,1.8009 -7.9149,-2.2367 -4.13476,-2.5373 -11.63476,-5.593 -16.66667,-6.7905 -5.03191,-1.1974 -9.74892,-2.898 -10.48225,-3.7789 -4.55631,-5.4736 -18.90118,-8.6783 -38.84592,-8.6783 -21.10448,0 -32.81699,3.1937 -37.4077,10.2 -2.20049,3.3583 -2.17369,3.5628 0.78034,5.9548 3.88692,3.1475 7.40288,4.0618 37.48784,9.7484 65.78244,12.4341 83.2865,24.6987 80.91817,56.6972 -0.96403,13.0248 -3.90836,21.1938 -10.22565,28.3706 -9.86668,11.2091 -28.05359,17.8026 -52.62532,19.0786 -7.37831,0.3832 -16.4151,0.8836 -20.08176,1.1121 -3.66667,0.2285 -11.76667,0 -18,-0.4985 z m 94,-4.875 c 5.86078,-3.0842 11.22704,-8.44 14.14921,-14.1215 l 2.57165,-5 h 43.79167 43.79167 l 0.8479,6.1861 c 1.8802,13.7176 2.14514,13.3129 -9.35328,14.2849 -5.61064,0.4743 -30.36064,0.8383 -55,0.8089 -41.63322,-0.05 -44.51617,-0.2021 -40.79882,-2.1584 z m 118.13237,-22.1215 c -4.61345,-64.4305 -13.07849,-101.8485 -27.58537,-121.9356 -2.1046,-2.9142 -2.08266,-2.9288 2.99977,-2 6.8446,1.2508 38.06416,1.1938 46.59663,-0.085 l 6.81005,-1.0207 -1.89769,7.0207 c -2.53591,9.3819 -2.45255,38.3354 0.19104,66.3541 1.14164,12.1 2.07814,25.27 2.08112,29.2666 0.003,4.4036 0.48336,6.7676 1.21848,6 0.66718,-0.6966 7.80418,-13.1628 15.85998,-27.7026 l 14.64694,-26.4361 14.99174,25.1027 c 8.24546,13.8065 15.6962,25.869 16.55723,26.8056 1.20477,1.3106 1.95875,-7.138 3.27224,-36.6666 1.75931,-39.5508 1.13323,-53.5365 -2.92375,-65.3119 l -1.84102,-5.3436 4.59081,1.0354 c 13.61032,3.0696 44.04556,2.4891 53.17513,-1.0142 1.93115,-0.7411 1.81674,-0.1832 -0.68205,3.326 -8.84293,12.4188 -15.96255,36.4355 -19.44829,65.6053 -1.8229,15.2546 -4.71603,60.6782 -4.73674,74.369 l -0.009,5.7023 -19.56644,-0.369 -19.56644,-0.369 -10.7669,-17.6548 c -5.92178,-9.7101 -11.32856,-17.4729 -12.01502,-17.2506 -0.68648,0.2223 -5.78648,8.3053 -11.33334,17.9621 l -10.0852,17.5579 -19.4437,0.026 -19.44371,0.026 z m -37.56051,-20.266 c -2.39649,-3.337 -4.89744,-6.0673 -5.55765,-6.0673 -0.66023,0 -3.70852,1.7132 -6.77397,3.8072 -8.25639,5.6399 -14.59128,7.2732 -25.49567,6.5734 -18.12736,-1.1634 -29.67372,-9.2908 -32.85621,-23.1273 -2.83583,-12.3292 3.85514,-25.0598 16.06473,-30.5655 2.95913,-1.3344 5.36128,-2.785 5.33809,-3.2237 -0.0232,-0.4386 -2.63056,-2.3667 -5.7942,-4.2847 -6.28137,-3.8081 -11.49698,-12.5089 -11.49698,-19.1794 0,-14.2046 17.48678,-28.6667 34.66218,-28.6667 19.33238,0 30.67115,10.5977 30.67115,28.6667 0,9.1794 -2.26259,14.6483 -8.52908,20.6156 l -4.84707,4.6156 10.32347,10.3844 c 5.67789,5.7114 11.04149,10.3844 11.91909,10.3844 0.87762,0 3.37831,-1.5 5.5571,-3.3334 2.1788,-1.8333 4.23514,-3.3333 4.56966,-3.3333 0.59147,0 9.00683,13.0523 9.00683,13.9697 0,0.2525 -2.7,1.7661 -6,3.3636 -3.3,1.5975 -6,3.5201 -6,4.2725 0,0.7523 2.20825,3.3906 4.90721,5.8627 2.69898,2.4722 4.64898,4.732 4.33334,5.0218 -0.4641,0.4262 -15.48086,8.3447 -18.77599,9.9008 -0.47783,0.2257 -2.82953,-2.32 -5.22603,-5.6571 z m -19.24346,-18.0652 c 3.30272,-1.4157 6.00493,-3.1218 6.00493,-3.7913 0,-0.6695 -4.50972,-5.2535 -10.0216,-10.1866 l -10.0216,-8.9693 -3.64507,2.3059 c -4.44884,2.8143 -7.98542,6.8842 -9.77924,11.2538 -4.75324,11.5785 10.32612,16.733 27.46258,9.3875 z m -6.51962,-50.6444 c 1.93231,-2.9199 3.81203,-7.9594 4.17716,-11.1989 0.59214,-5.2533 0.28368,-6.1391 -2.85352,-8.1947 -2.46185,-1.613 -4.95972,-2.0706 -8.32362,-1.5247 -10.42362,1.6915 -12.63388,9.2505 -5.83816,19.9662 5.00369,7.89 8.09513,8.1193 12.83814,0.9521 z M 854.00106,677.80088 c -20.09974,-1.5095 -42.2012,-4.6788 -44.88324,-6.43613 -4.58512,-3.00428 -6.85212,-8.45396 -9.24115,-22.21496 -3.90935,-22.51815 -1.11971,-36.71835 9.11028,-46.37444 8.59513,-8.11293 20.00656,-8.57377 32.70601,-1.32081 8.34047,4.76344 14.28086,12.46548 17.10378,22.17598 2.3004,7.91307 1.63081,7.56182 18.53765,9.72442 14.35836,1.83661 28.86971,8.97032 35.08919,17.24968 5.42973,7.22806 4.9718,10.7202 -2.31946,17.68764 -8.7299,8.34218 -28.04501,11.61581 -56.10306,9.50862 z"
       id="path246" />
  </g>
</svg>
